<?xml version="1.0" standalone="no"?>
<!DOCTYPE svg PUBLIC "-//W3C//DTD SVG 20010904//EN"
 "http://www.w3.org/TR/2001/REC-SVG-20010904/DTD/svg10.dtd">
<svg version="1.0" xmlns="http://www.w3.org/2000/svg"
 width="375.000000pt" height="666.000000pt" viewBox="0 0 375.000000 666.000000"
 preserveAspectRatio="xMidYMid meet">

<g transform="translate(0.000000,666.000000) scale(0.100000,-0.100000)"
fill="#000000" stroke="none">
<path d="M1817 4045 c-209 -40 -317 -106 -383 -237 -32 -62 -56 -177 -52 -242
l3 -48 -52 -20 c-63 -23 -128 -92 -144 -152 -15 -55 -5 -138 32 -271 59 -208
154 -402 213 -432 36 -19 290 -42 456 -42 159 0 389 23 427 42 60 32 152 219
212 435 55 196 52 273 -15 350 -49 57 -104 84 -186 90 -69 5 -79 13 -55 41 24
28 48 102 54 166 12 131 -55 244 -177 299 -78 35 -214 43 -333 21z m305 -63
c132 -58 187 -197 134 -337 -31 -82 -50 -101 -149 -148 -110 -53 -128 -71
-135 -135 -6 -66 18 -113 84 -165 55 -44 63 -55 42 -61 -7 -2 -53 -16 -103
-30 -107 -31 -141 -32 -254 -6 -47 10 -99 21 -116 22 -29 3 -28 4 44 62 78 62
101 100 101 163 0 97 -90 154 -278 179 -45 6 -53 10 -58 31 -11 43 14 155 51
230 37 75 75 113 153 152 130 66 382 88 484 43z m-538 -527 c113 -30 149 -71
127 -144 -8 -30 -27 -51 -85 -95 -75 -57 -114 -105 -134 -165 -18 -50 -15 -77
18 -204 36 -141 38 -177 10 -177 -57 0 -86 26 -133 118 -57 110 -121 297 -141
412 -20 113 -8 167 47 218 53 49 181 66 291 37z m790 5 c48 -11 83 -36 115
-81 21 -31 23 -41 18 -124 -6 -115 -58 -288 -133 -443 -48 -100 -59 -115 -90
-128 -81 -34 -89 -1 -44 164 47 170 34 234 -68 320 -122 103 -142 127 -142
166 0 45 11 68 45 90 59 39 209 57 299 36z m-183 -399 c21 -16 24 -27 22 -78
0 -32 -13 -96 -27 -142 -14 -47 -26 -104 -26 -128 0 -38 -3 -43 -27 -50 -38
-10 -437 -10 -495 0 -48 8 -48 8 -48 48 0 22 -12 82 -27 132 -29 101 -35 186
-14 211 19 22 84 20 184 -5 107 -28 175 -27 262 4 87 32 163 35 196 8z"/>
</g>
</svg>
